<?xml version="1.0" encoding="UTF-8"?>
<svg version="1.1" xmlns="http://www.w3.org/2000/svg" width="512" height="512">
<path d="M0 0 C168.96 0 337.92 0 512 0 C512 168.96 512 337.92 512 512 C343.04 512 174.08 512 0 512 C0 343.04 0 174.08 0 0 Z " fill="#1D3557" transform="translate(0,0)"/>
<path d="M0 0 C2.01289755 0.00261251 4.02579706 0.00396634 6.03869629 0.00416565 C11.3621269 0.00879769 16.68529316 0.03260064 22.00864029 0.0616188 C26.42251001 0.08380179 30.8363865 0.09592944 35.25029278 0.10833073 C48.33209473 0.14590758 61.41350958 0.22030605 74.49505615 0.3085556 C77.35558458 0.32730638 80.21611671 0.3443737 83.07666016 0.36065674 C93.29342117 0.41913117 103.50950933 0.50126301 113.72576523 0.61860657 C115.78409098 0.64053044 117.84240645 0.65763339 119.90078735 0.67346191 C123.65298352 0.70616432 127.4043773 0.75803651 131.15625 0.81640625 C132.23273804 0.82281631 133.30922607 0.82922638 134.41833496 0.83583069 C139.81178271 0.94409111 143.86334559 1.20456578 148.48046875 4.328125 C150.39494754 8.15708259 150.04446227 12.50322357 148.80712891 16.50683594 C147.87202939 18.77844355 146.85888452 20.98993852 145.79296875 23.203125 C145.42574707 23.99033936 145.05852539 24.77755371 144.68017578 25.58862305 C143.95229822 27.14188751 143.21781197 28.69207586 142.47607422 30.23876953 C141.63953513 31.99431184 140.83888067 33.76689063 140.046875 35.54296875 C136.94134167 42.31404962 133.94522042 45.6911093 127.07421875 48.9375 C121.39445888 50.97300973 115.76165924 50.72571193 109.79296875 50.640625 C108.48328125 50.63224609 107.17359375 50.62386719 105.82421875 50.61523438 C80.37446345 50.37905927 54.91295818 49.24746064 29.48046875 48.328125 C29.43395676 48.90881744 29.38744476 49.48950989 29.33952332 50.08779907 C28.33429776 62.41056032 27.00988282 74.53748259 24.79296875 86.703125 C24.5303498 88.18546905 24.26866116 89.66797817 24.0078125 91.15063477 C23.45734759 94.27169267 22.90193108 97.39180594 22.34228516 100.51123047 C21.01462212 107.91758711 19.71968154 115.32970383 18.42236328 122.74142456 C18.12751741 124.42565013 17.83243237 126.10983385 17.53710938 127.79397583 C14.41122895 145.62126261 11.37630608 163.4619812 8.48046875 181.328125 C8.29919434 182.43607422 8.11791992 183.54402344 7.93115234 184.68554688 C5.446919 200.02151516 3.55247823 215.43040637 1.70239258 230.85348511 C1.4338001 233.09193597 1.16335523 235.33016552 0.89086914 237.56814575 C-0.52760038 249.27018867 -1.7882967 260.91674108 -2.2195282 272.70188904 C-2.38616086 277.25479885 -2.76371398 281.7253919 -3.29933167 286.24958801 C-3.59490055 289.03956081 -3.66362805 291.80886566 -3.6953125 294.61328125 C-3.71916016 295.72123047 -3.74300781 296.82917969 -3.76757812 297.97070312 C-3.81061688 300.25436555 -3.84182911 302.5382809 -3.86132812 304.82226562 C-4.07563306 313.37951134 -5.41405899 319.44898259 -11.58203125 325.578125 C-22.23917397 333.89204818 -37.95497889 335.54543102 -51.08203125 335.765625 C-51.83170166 335.78786133 -52.58137207 335.81009766 -53.35375977 335.83300781 C-58.4963809 335.81217577 -61.46977587 334.74778249 -65.51953125 331.328125 C-69.26381498 324.35601046 -69.67531059 317.57746953 -69.6875 309.80078125 C-69.69168945 308.98340988 -69.69587891 308.16603851 -69.70019531 307.32389832 C-69.70995935 304.67942471 -69.70998655 302.03511364 -69.70703125 299.390625 C-69.70675934 298.48896606 -69.70648743 297.58730713 -69.70620728 296.6583252 C-69.67862754 276.82474538 -68.13698118 257.55549611 -64.94482422 237.98144531 C-64.49253047 235.1596724 -64.06877365 232.33451504 -63.6484375 229.5078125 C-60.12216604 206.13505774 -54.8327927 183.18137723 -49.22216797 160.23291016 C-48.54627098 157.43867027 -47.88994545 154.64072688 -47.2421875 151.83984375 C-44.39400811 139.54454209 -41.13954686 127.41842687 -37.51953125 115.328125 C-37.18405273 114.20277344 -36.84857422 113.07742187 -36.50292969 111.91796875 C-30.07926402 90.47876777 -22.74824541 69.71781534 -13.51953125 49.328125 C-41.13735316 50.20072601 -67.2603313 58.25791213 -93.40356445 66.57519531 C-103.3186193 69.6956128 -113.23491935 72.78407859 -123.70703125 72.640625 C-124.95871094 72.63675781 -126.21039063 72.63289063 -127.5 72.62890625 C-130.51953125 72.328125 -130.51953125 72.328125 -132.51953125 70.328125 C-133.59990946 64.92623394 -131.23024071 61.43150907 -128.4140625 57.0390625 C-108.98214292 29.23338789 -74.22104905 9.39757741 -41.00713539 2.83144379 C-27.31517972 0.55708229 -13.85362815 -0.09488748 0 0 Z " fill="#FDFDFE" transform="translate(247.51953125,88.671875)"/>
<path d="M0 0 C0.33 0 0.66 0 1 0 C1 13.53 1 27.06 1 41 C-12.53 41 -26.06 41 -40 41 C-36.77794772 39.38897386 -33.66489916 38.09649079 -30.3125 36.8125 C-17.71232801 31.5611525 -8.22889841 22.19948407 -2.96484375 9.59765625 C-1.78548854 6.42246916 -0.80417774 3.28981803 0 0 Z " fill="#000000" transform="translate(511,471)"/>
<path d="M0 0 C1.61102614 3.22205228 2.90350921 6.33510084 4.1875 9.6875 C9.4388475 22.28767199 18.80051593 31.77110159 31.40234375 37.03515625 C34.57753084 38.21451146 37.71018197 39.19582226 41 40 C41 40.33 41 40.66 41 41 C27.47 41 13.94 41 0 41 C0 27.47 0 13.94 0 0 Z " fill="#000000" transform="translate(0,471)"/>
<path d="M0 0 C13.53 0 27.06 0 41 0 C41 13.53 41 27.06 41 41 C39.38897386 37.77794772 38.09649079 34.66489916 36.8125 31.3125 C31.5611525 18.71232801 22.19948407 9.22889841 9.59765625 3.96484375 C6.42246916 2.78548854 3.28981803 1.80417774 0 1 C0 0.67 0 0.34 0 0 Z " fill="#000000" transform="translate(471,0)"/>
<path d="M0 0 C13.53 0 27.06 0 41 0 C37.77794772 1.61102614 34.66489916 2.90350921 31.3125 4.1875 C18.71232801 9.4388475 9.22889841 18.80051593 3.96484375 31.40234375 C2.78548854 34.57753084 1.80417774 37.71018197 1 41 C0.67 41 0.34 41 0 41 C0 27.47 0 13.94 0 0 Z " fill="#000000" transform="translate(0,0)"/>
</svg>
